<svg width="245" height="63" viewBox="0 0 245 63" fill="none" xmlns="http://www.w3.org/2000/svg">
    <path d="M22.1398 35.8808C12.3327 35.8808 3.55554 29.2312 3.55554 17.8958C3.55554 7.09583 11.8401 0 22.1398 0C32.4843 0 40.8584 7.09583 40.8584 17.8958C40.8584 22.3139 39.515 26.018 37.2759 28.9188L43.3662 37.9337H28.4988L26.7075 35.3899C25.2745 35.7023 23.7071 35.8808 22.1398 35.8808ZM22.1846 24.6346C25.7223 24.6346 28.7227 22.0015 28.7227 17.8958C28.7227 13.9239 25.7223 11.2908 22.1846 11.2908C18.6021 11.2908 15.6913 13.9239 15.6913 17.8958C15.6913 22.0461 18.6469 24.6346 22.1846 24.6346Z" fill="#080708"/>
    <path d="M57.692 35.8808C50.2135 35.8808 43.0933 32.3105 43.0933 20.9751V0.535535H54.7364V21.0643C54.7364 23.2065 55.8559 24.3222 57.5129 24.3222C59.1698 24.3222 60.2893 23.2511 60.2893 21.0643V0.535535H71.9324V20.9751C71.9324 32.3552 64.9466 35.8808 57.692 35.8808Z" fill="#080708"/>
    <path d="M95.3639 35.3452L94.3787 30.9271H86.0494L85.0642 35.3452H73.1524L82.4669 0.535535H98.006L107.321 35.3452H95.3639ZM87.8407 22.8494H92.5875L90.1693 12.228L87.8407 22.8494Z" fill="#080708"/>
    <path d="M108.65 35.3006V0.535535H119.711L127.951 15.0396V0.535535H139.594V35.3452H128.488L120.294 20.9304V35.3452L108.65 35.3006Z" fill="#080708"/>
    <path d="M148.326 35.3452V10.9784H141.608V0.535535H166.686V10.9784H159.969V35.3452H148.326Z" fill="#080708"/>
    <path d="M183.158 35.8808C175.68 35.8808 168.56 32.3105 168.56 20.9751V0.535535H180.203V21.0643C180.203 23.2065 181.322 24.3222 182.979 24.3222C184.636 24.3222 185.756 23.2511 185.756 21.0643V0.535535H197.399V20.9751C197.399 32.3552 190.413 35.8808 183.158 35.8808Z" fill="#080708"/>
    <path d="M199.962 35.3452V0.535535H214.292L220.517 17.8065L226.697 0.535535H241.027V35.3452H229.384V18.6098L223.517 35.3452H217.561L211.605 18.5652V35.3452H199.962Z" fill="#080708"/>
    <path d="M2.43665 51.0347C5.10331 39.4129 7.76998 39.4129 10.4366 51.0347C13.1033 62.6566 15.77 62.6566 18.4366 51.0347C21.1033 39.4129 23.77 39.4129 26.4366 51.0347C29.1033 62.6566 31.77 62.6566 34.4366 51.0347C37.1033 39.4129 39.77 39.4129 42.4366 51.0347C45.1033 62.6566 47.77 62.6566 50.4366 51.0347C53.1033 39.4129 55.77 39.4129 58.4366 51.0347C61.1033 62.6566 63.77 62.6566 66.4366 51.0347C69.1033 39.4129 71.77 39.4129 74.4366 51.0347C77.1033 62.6566 79.77 62.6566 82.4366 51.0347C85.1033 39.4129 87.77 39.4129 90.4366 51.0347C93.1033 62.6566 95.77 62.6566 98.4366 51.0347C101.103 39.4129 103.77 39.4129 106.437 51.0347C109.103 62.6566 111.77 62.6566 114.437 51.0347C117.103 39.4129 119.77 39.4129 122.437 51.0347C125.103 62.6566 127.77 62.6566 130.437 51.0347C133.103 39.4129 135.77 39.4129 138.437 51.0347C141.103 62.6566 143.77 62.6566 146.437 51.0347C149.103 39.4129 151.77 39.4129 154.437 51.0347C157.103 62.6566 159.77 62.6566 162.437 51.0347C165.103 39.4129 167.77 39.4129 170.437 51.0347C173.103 62.6566 175.77 62.6566 178.437 51.0347C181.103 39.4129 183.77 39.4129 186.437 51.0347C189.103 62.6566 191.77 62.6566 194.437 51.0347C197.103 39.4129 199.77 39.4129 202.437 51.0347C205.103 62.6566 207.77 62.6566 210.437 51.0347C213.103 39.4129 215.77 39.4129 218.437 51.0347C221.103 62.6566 223.77 62.6566 226.437 51.0347C229.103 39.4129 231.77 39.4129 234.437 51.0347C237.103 62.6566 239.77 62.6566 242.437 51.0347" stroke="#DF2A35" stroke-width="5"/>
    <path d="M166.52 37.2397C169.337 37.2397 171.617 39.5149 171.617 42.3179C171.617 45.121 169.337 47.397 166.52 47.397C163.703 47.397 161.422 45.121 161.422 42.3179C161.422 39.5149 163.703 37.2398 166.52 37.2397Z" fill="#DF2A35" stroke="#DF2A35"/>
</svg>
