<svg width="346" height="31" viewBox="0 0 346 31" fill="none" xmlns="http://www.w3.org/2000/svg">
    <path d="M2.92578 15.3482C6.70356 -1.11606 10.4813 -1.11606 14.2591 15.3482C18.0369 31.8124 21.8147 31.8124 25.5924 15.3482C29.3702 -1.11606 33.148 -1.11606 36.9258 15.3482C40.7036 31.8124 44.4813 31.8124 48.2591 15.3482C52.0369 -1.11606 55.8147 -1.11606 59.5924 15.3482C63.3702 31.8124 67.148 31.8124 70.9258 15.3482C74.7036 -1.11606 78.4813 -1.11606 82.2591 15.3482C86.0369 31.8124 89.8147 31.8124 93.5924 15.3482C97.3702 -1.11606 101.148 -1.11606 104.926 15.3482C108.704 31.8124 112.481 31.8124 116.259 15.3482C120.037 -1.11606 123.815 -1.11606 127.592 15.3482C131.37 31.8124 135.148 31.8124 138.926 15.3482C142.704 -1.11606 146.481 -1.11606 150.259 15.3482C154.037 31.8124 157.815 31.8124 161.592 15.3482C165.37 -1.11606 169.148 -1.11606 172.926 15.3482C176.704 31.8124 180.481 31.8124 184.259 15.3482C188.037 -1.11606 191.815 -1.11606 195.592 15.3482C199.37 31.8124 203.148 31.8124 206.926 15.3482C210.704 -1.11606 214.481 -1.11606 218.259 15.3482C222.037 31.8124 225.815 31.8124 229.592 15.3482C233.37 -1.11606 237.148 -1.11606 240.926 15.3482C244.704 31.8124 248.481 31.8124 252.259 15.3482C256.037 -1.11606 259.815 -1.11606 263.592 15.3482C267.37 31.8124 271.148 31.8124 274.926 15.3482C278.704 -1.11606 282.481 -1.11606 286.259 15.3482C290.037 31.8124 293.815 31.8124 297.592 15.3482C301.37 -1.11606 305.148 -1.11606 308.926 15.3482C312.704 31.8124 316.481 31.8124 320.259 15.3482C324.037 -1.11606 327.815 -1.11606 331.592 15.3482C335.37 31.8124 339.148 31.8124 342.926 15.3482" stroke="#080708" stroke-width="6"/>
</svg>
